HIERARCHY
ROOT hip
{
  OFFSET 0 0 0
  CHANNELS 6 Xposition Yposition Zposition Zrotation Yrotation Xrotation
  JOINT abdomen
  {
    OFFSET 0 20.6881 -0.73152
    CHANNELS 3 Zrotation Xrotation Yrotation
    JOINT chest
    {
      OFFSET 0 11.7043 -0.48768
      CHANNELS 3 Zrotation Xrotation Yrotation
      JOINT neck
      {
        OFFSET 0 22.1894 -2.19456
        CHANNELS 3 Zrotation Xrotation Yrotation
        JOINT head
        {
          OFFSET -0.24384 7.07133 1.2192
          CHANNELS 3 Zrotation Xrotation Yrotation
          JOINT leftEye
          {
            OFFSET 4.14528 8.04674 8.04672
            CHANNELS 3 Zrotation Xrotation Yrotation
            End Site
            {
              OFFSET 1 0 0
            }
          }
          JOINT rightEye
          {
            OFFSET -3.6576 8.04674 8.04672
            CHANNELS 3 Zrotation Xrotation Yrotation
            End Site
            {
              OFFSET 1 0 0
            }
          }
        }
      }
      JOINT rCollar
      {
        OFFSET -2.68224 19.2634 -4.8768
        CHANNELS 3 Zrotation Xrotation Yrotation
        JOINT rShldr
        {
          OFFSET -8.77824 -1.95073 1.46304
          CHANNELS 3 Zrotation Xrotation Yrotation
          JOINT rForeArm
          {
            OFFSET -28.1742 -1.7115 0.48768
            CHANNELS 3 Zrotation Xrotation Yrotation
            JOINT rHand
            {
              OFFSET -22.5879 0.773209 7.07136
              CHANNELS 3 Zrotation Xrotation Yrotation
              JOINT rThumb1
              {
                OFFSET -1.2192 -0.487915 3.41376
                CHANNELS 3 Zrotation Xrotation Yrotation
                JOINT rThumb2
                {
                  OFFSET -3.37035 -0.52449 3.41376
                  CHANNELS 3 Zrotation Xrotation Yrotation
                  End Site
                  {
                    OFFSET -1.78271 -1.18214 1.43049
                  }
                }
              }
              JOINT rIndex1
              {
                OFFSET -7.75947 0.938293 5.60832
                CHANNELS 3 Zrotation Xrotation Yrotation
                JOINT rIndex2
                {
                  OFFSET -2.54057 -0.884171 1.56538
                  CHANNELS 3 Zrotation Xrotation Yrotation
                  End Site
                  {
                    OFFSET -1.62519 -0.234802 1.16502
                  }
                }
              }
              JOINT rMid1
              {
                OFFSET -8.24714 1.18213 3.41376
                CHANNELS 3 Zrotation Xrotation Yrotation
                JOINT rMid2
                {
                  OFFSET -3.10165 -0.590103 1.0647
                  CHANNELS 3 Zrotation Xrotation Yrotation
                  End Site
                  {
                    OFFSET -2.48547 -0.328903 0.83742
                  }
                }
              }
              JOINT rRing1
              {
                OFFSET -8.82822 0.546677 1.51678
                CHANNELS 3 Zrotation Xrotation Yrotation
                JOINT rRing2
                {
                  OFFSET -2.60934 -0.819778 -0.0198488
                  CHANNELS 3 Zrotation Xrotation Yrotation
                  End Site
                  {
                    OFFSET -2.33842 -0.294052 0.168128
                  }
                }
              }
              JOINT rPinky1
              {
                OFFSET -8.27202 -0.0477905 -0.4584
                CHANNELS 3 Zrotation Xrotation Yrotation
                JOINT rPinky2
                {
                  OFFSET -1.82734 -0.647385 -0.700984
                  CHANNELS 3 Zrotation Xrotation Yrotation
                  End Site
                  {
                    OFFSET -1.69225 -0.51767 -0.607171
                  }
                }
              }
            }
          }
        }
      }
      JOINT lCollar
      {
        OFFSET 2.68224 19.2634 -4.8768
        CHANNELS 3 Zrotation Xrotation Yrotation
        JOINT lShldr
        {
          OFFSET 8.77824 -1.95073 1.46304
          CHANNELS 3 Zrotation Xrotation Yrotation
          JOINT lForeArm
          {
            OFFSET 28.1742 -1.7115 0.48768
            CHANNELS 3 Zrotation Xrotation Yrotation
            JOINT lHand
            {
              OFFSET 22.5879 0.773209 7.07136
              CHANNELS 3 Zrotation Xrotation Yrotation
              JOINT lThumb1
              {
                OFFSET 1.2192 -0.487915 3.41376
                CHANNELS 3 Zrotation Xrotation Yrotation
                JOINT lThumb2
                {
                  OFFSET 3.37035 -0.52449 3.41376
                  CHANNELS 3 Zrotation Xrotation Yrotation
                  End Site
                  {
                    OFFSET 1.78271 -1.18214 1.43049
                  }
                }
              }
              JOINT lIndex1
              {
                OFFSET 7.75947 0.938293 5.60832
                CHANNELS 3 Zrotation Xrotation Yrotation
                JOINT lIndex2
                {
                  OFFSET 2.54057 -0.884171 1.56538
                  CHANNELS 3 Zrotation Xrotation Yrotation
                  End Site
                  {
                    OFFSET 1.62519 -0.234802 1.16502
                  }
                }
              }
              JOINT lMid1
              {
                OFFSET 8.24714 1.18213 3.41376
                CHANNELS 3 Zrotation Xrotation Yrotation
                JOINT lMid2
                {
                  OFFSET 3.10165 -0.590103 1.0647
                  CHANNELS 3 Zrotation Xrotation Yrotation
                  End Site
                  {
                    OFFSET 2.48547 -0.328903 0.83742
                  }
                }
              }
              JOINT lRing1
              {
                OFFSET 8.82822 0.546677 1.51678
                CHANNELS 3 Zrotation Xrotation Yrotation
                JOINT lRing2
                {
                  OFFSET 2.60934 -0.819778 -0.0198488
                  CHANNELS 3 Zrotation Xrotation Yrotation
                  End Site
                  {
                    OFFSET 2.33842 -0.294052 0.168128
                  }
                }
              }
              JOINT lPinky1
              {
                OFFSET 8.27202 -0.0477905 -0.4584
                CHANNELS 3 Zrotation Xrotation Yrotation
                JOINT lPinky2
                {
                  OFFSET 1.82734 -0.647385 -0.700984
                  CHANNELS 3 Zrotation Xrotation Yrotation
                  End Site
                  {
                    OFFSET 1.69225 -0.51767 -0.607171
                  }
                }
              }
            }
          }
        }
      }
    }
  }
  JOINT rButtock
  {
    OFFSET -8.77824 4.35084 1.2192
    CHANNELS 3 Zrotation Xrotation Yrotation
    JOINT rThigh
    {
      OFFSET 0 -1.70687 -2.19456
      CHANNELS 3 Zrotation Xrotation Yrotation
      JOINT rShin
      {
        OFFSET 0 -36.8199 0.73152
        CHANNELS 3 Zrotation Xrotation Yrotation
        JOINT rFoot
        {
          OFFSET 0.73152 -45.1104 -5.12064
          CHANNELS 3 Zrotation Xrotation Yrotation
          End Site
          {
            OFFSET -1.1221 -3.69964 12.103
          }
        }
      }
    }
  }
  JOINT lButtock
  {
    OFFSET 8.77824 4.35084 1.2192
    CHANNELS 3 Zrotation Xrotation Yrotation
    JOINT lThigh
    {
      OFFSET 0 -1.70687 -2.19456
      CHANNELS 3 Zrotation Xrotation Yrotation
      JOINT lShin
      {
        OFFSET 0 -36.8199 0.73152
        CHANNELS 3 Zrotation Xrotation Yrotation
        JOINT lFoot
        {
          OFFSET -0.73152 -45.1104 -5.12064
          CHANNELS 3 Zrotation Xrotation Yrotation
          End Site
          {
            OFFSET 1.1221 -3.69964 12.103
          }
        }
      }
    }
  }
}
MOTION
Frames:	6
Frame Time:	0.03333
0.0 0.0 0.0 0.0 0.0 0.0 0.0 0.0 0.0 0.0 0.0 0.0 0.0 0.0 0.0 0.0 0.0 0.0 0.0 0.0 0.0 0.0 0.0 0.0 0.0 0.0 0.0 0.0 0.0 0.0 0.0 0.0 0.0 0.0 0.0 0.0 0.0 0.0 0.0 0.0 0.0 0.0 0.0 0.0 0.0 0.0 0.0 0.0 0.0 0.0 0.0 0.0 0.0 0.0 0.0 0.0 0.0 0.0 0.0 0.0 0.0 0.0 0.0 0.0 0.0 0.0 0.0 0.0 0.0 0.0 0.0 0.0 0.0 0.0 0.0 0.0 0.0 0.0 0.0 0.0 0.0 0.0 0.0 0.0 0.0 0.0 0.0 0.0 0.0 0.0 0.0 0.0 0.0 0.0 0.0 0.0 0.0 0.0 0.0 0.0 0.0 0.0 0.0 0.0 0.0 0.0 0.0 0.0 0.0 0.0 0.0 0.0 0.0 0.0 0.0 0.0 0.0 0.0 0.0 0.0 0.0 0.0 0.0 0.0 0.0 0.0 0.0 0.0 0.0 0.0 0.0 0.0
0.0598 67.338 1.6591000000000002 175.530925 -48.196891 -168.964828 -7.47261 17.008146 -1.627233 4.822287 -11.587427 7.6393 -14.04202 28.571346 -81.553638 50.384815 5.594978 55.447988 0.001211 -0.0 -0.000777 0.001211 -0.0 -0.000777 1.402392 -9.38773 -1.969725 25.900893 16.566833 37.316155 0.462277 -42.953077 72.338983 -11.480059 59.221242 8.663132 -145.206808 15.522031 84.376178 -74.830021 -3.517057 35.162967 6.903705 -11.954269 -3.379089 179.34734 -38.831807 104.732035 173.696698 -65.753897 138.032907 -176.704681 -41.823435 142.601519 -144.460524 -13.946953 -174.63991 -143.419184 -52.188124 -166.857867 -165.852252 77.88787 -149.477064 -158.897999 45.763123 -147.571888 10.420315 36.456691 -12.027848 98.616969 -1.264269 -122.810868 -13.205005 29.886112 137.706768 130.320045 39.748939 -115.774627 12.001067 11.251436 -2.99148 153.069051 -58.162628 -110.526883 170.341516 -48.78722 -121.107852 -66.617773 -63.754641 -14.46927 175.645682 -50.081016 -144.142958 -4.342247 -3.744608 0.149935 145.064073 5.977168 -178.990187 -10.400747 8.588145 7.932747 156.919592 55.745276 150.351767 53.245998 -51.694852 52.754099 -179.998902 75.750316 -0.000748 160.640628 -1.986511 -100.818982 -73.557636 5.825784 133.648171 -112.8684 0.474813 31.640476 179.996041 75.75064 0.003261 -176.236583 37.180386 178.496667 65.093634 -69.23854 158.303144 83.296552 -42.223835 147.906133
0.1833 67.1806 2.4187 175.185175 -44.854085 -169.130986 -6.203024 14.738191 -87.778409 9.679575 1.382163 92.833287 -13.846355 26.493435 -70.905277 47.968767 -1.701698 51.444445 0.000826 -0.0 -0.00291 0.000826 -0.0 -0.00291 -1.889669 10.009245 2.4047 70.647694 -36.353498 56.670338 177.918599 -5.732341 73.824022 140.686036 -47.068511 132.039339 152.816414 -38.054284 79.735611 -161.989269 0.464183 102.066032 10.065281 -17.780997 -4.518184 -3.515296 21.982363 5.584055 -2.317723 6.48976 1.372145 -13.541715 36.68966 10.791348 -145.110062 -0.787309 -178.882394 12.180882 38.575009 -4.616635 1.22268 3.276936 1.123389 -150.616592 22.852468 -146.086259 135.758619 49.584618 -139.808587 84.997579 27.861322 -39.154811 170.439964 -19.41603 79.291373 14.805901 -51.305195 14.003015 179.349045 -16.853948 -89.362868 17.755587 -45.196574 1.440999 165.25519 -41.631059 -122.354119 158.874339 -15.586682 -119.282613 -101.038459 -81.565902 -71.309458 169.113817 -21.958673 -144.104945 -0.002877 0.678108 -0.214455 10.184661 65.971085 -22.923214 0.303805 -0.790318 0.280788 48.431619 -52.483439 48.566401 -0.002208 -0.00087 -0.000679 -60.006869 -66.567421 -128.194535 -86.635765 38.319581 -175.913911 -10.994498 -60.054636 -98.34749 -0.00225 9.3e-05 -0.002711 0.516146 -35.426276 1.090888 -39.068353 80.181448 145.71371 -80.942269 50.505997 -31.843117
0.3595 67.1517 3.1193999999999997 175.450224 -42.174309 -169.437327 -9.057304 16.680837 -2.376032 4.279565 -11.665797 7.616545 8.727869 26.688222 95.945366 -45.420055 12.370316 -108.563813 0.000234 0.0 0.001062 0.000234 0.0 0.001062 -158.010228 -64.988178 175.184413 47.063782 26.375442 -27.966127 -1.282541 46.081342 69.362315 -11.363955 58.810965 8.527528 -175.73727 -13.371581 89.766241 164.467556 -31.911199 101.246535 -1.9665 3.12157 1.146014 -170.427859 -25.265469 108.884257 -157.424751 2.952657 141.519054 5.766179 -7.459132 -0.468612 -0.003954 -0.396627 -0.124051 -156.277401 -18.904604 174.076486 -152.998298 40.483031 -148.144277 -89.44297 -51.432667 -88.196494 158.145175 -25.964013 -166.172387 -47.300326 44.92669 89.059533 -159.884067 48.150849 57.726128 16.75842 -19.931024 4.827378 174.853418 -12.506274 -89.830403 -21.383074 -64.695307 -18.068818 26.996004 30.347717 -19.743767 24.207989 35.114518 -14.709642 -178.415466 -60.302884 -141.188658 -1.927417 3.245588 -0.73637 0.011083 -1.092217 0.343308 -10.598595 -57.29994 7.827737 44.475753 -47.91811 43.26034 6.550395 -21.391552 9.284657 -0.011212 -4e-05 -0.008026 -63.30252 -63.747604 7.936084 99.441784 15.009548 156.252686 -111.806851 70.625718 -156.770955 -0.011212 -4e-05 -0.008026 -1.94911 -35.010359 0.108169 -20.188796 75.372583 78.810462 56.45366 -42.497063 -6.178951
0.5728 67.1827 3.6274 175.857687 -39.895022 -169.650824 -8.147968 11.387027 -158.539128 0.360821 7.426495 161.217503 9.172633 27.657224 102.973867 -44.896438 16.816748 -109.523454 -0.001493 -0.0 0.002712 -0.001493 -0.0 0.002712 3.774854 -33.758769 -6.526887 54.858529 -0.616778 26.347021 161.724176 -10.180141 79.693771 153.176993 -33.173593 142.834226 -14.100846 13.051673 3.732193 -149.320005 -53.739106 110.081435 -85.848455 41.981034 71.886152 -168.035137 -16.436317 114.521847 -145.159461 29.731211 132.585832 -145.214828 35.574712 132.127419 -0.149728 -6.131797 -1.936306 -156.058871 -32.148986 175.67094 -162.493633 72.327729 -150.866375 -165.476741 62.399677 -147.043516 125.232972 58.113432 -128.963881 -108.067916 -14.772247 -152.355154 18.058566 35.036007 -122.743583 7.323446 -46.97107 10.312282 -34.536933 -31.525608 -4.787673 12.851087 0.725197 10.806701 92.033847 40.621753 -77.406157 172.404772 -23.863443 -114.400692 2.9977 8.290214 -1.807188 38.162326 56.998272 -32.499217 -0.004847 0.669496 -0.211108 -9.82627 5.809085 -0.688513 140.894077 -0.226726 137.94419 154.028434 32.673181 145.520298 -0.001543 1.1e-05 -0.003288 -60.989613 -64.210668 -141.852604 -95.877635 18.215734 98.501579 -96.279434 -17.329327 15.600576 0.048066 3.8e-05 0.038968 -3.445358 -35.001481 -18.447941 -72.603213 54.057912 -37.151021 22.250685 36.090423 131.531678
0.8038 67.3493 3.9682000000000004 176.654973 -37.616775 -170.1868 -10.388164 15.046347 33.395629 -2.572063 -11.508406 -31.216212 -3.608167 16.638614 -0.840994 7.480911 -35.24596 -6.603424 -0.000576 0.0 -0.000169 -0.000576 0.0 -0.000169 4.236828 -44.631021 -8.624957 -120.491631 -20.132304 158.73319 18.445212 4.982658 -93.106154 154.105549 -33.687104 141.476049 -1.361422 1.338901 0.224474 8.845017 -11.742068 -5.976564 -154.674797 -23.338764 122.034984 -60.59759 57.304335 45.219779 -20.801934 39.754164 15.943067 -179.572026 -48.696001 141.400871 -0.015562 -1.341794 -0.420834 -156.400916 -26.697426 174.98153 -20.219705 -33.454601 -19.391928 -118.921092 -38.812689 -118.234393 3.447187 16.68376 -4.266348 100.503421 -15.363934 -107.792493 -5.192787 45.619438 147.544703 165.978898 11.573371 -139.429461 7.495595 7.19612 -1.609194 153.102754 -60.37818 -113.756685 -79.22841 -74.467585 -31.604659 164.353194 -28.428292 -114.435299 164.466525 -18.725508 -144.683578 -28.484625 -58.516152 -6.085695 0.045556 5.681396 -1.787696 155.519627 -60.411623 179.607417 4.091818 -9.666883 3.826404 161.721908 62.374113 150.006903 179.994195 75.74983 0.004233 156.847347 0.923424 -87.842269 -102.286614 17.6566 143.981668 41.898197 -54.877906 -37.128374 179.990237 75.750843 0.008784 174.705097 40.684923 6.372252 -57.247421 73.768756 -75.347492 -118.685334 17.885787 -154.925292
